<?xml version="1.0" encoding="UTF-8" standalone="no"?>
<svg width="234px" height="130px" viewBox="0 0 234 130" version="1.1" xmlns="http://www.w3.org/2000/svg" xmlns:xlink="http://www.w3.org/1999/xlink">
    <!-- Generator: Sketch 3.6.1 (26313) - http://www.bohemiancoding.com/sketch -->
    <title>atomic_outlined-08</title>
    <desc>Created with Sketch.</desc>
    <defs></defs>
    <g id="Page-1" stroke="none" stroke-width="1" fill="none" fill-rule="evenodd">
        <g id="atomic_outlined-08" transform="translate(-1.000000, -28.000000)">
            <path d="M69.527,38.225 C69.562,37.792 69.671,37.396 69.776,37.014 L69.784,36.973 C69.869,36.718 69.972,36.504 70.059,36.318 L70.129,36.165 L70.491,35.64 L70.924,35.233 L71.027,35.17 C71.165,35.082 71.321,34.979 71.506,34.891 L71.551,34.874 C71.866,34.757 72.163,34.646 72.565,34.599 C74.408,34.28 77.375,35.009 80.706,36.611 C84.275,38.291 88.44,40.969 93.08,44.566 C98.244,48.607 103.218,53.021 107.868,57.69 C110.051,59.864 112.275,62.17 114.497,64.551 C112.321,66.712 110.152,68.911 108.002,71.175 C106.935,72.301 105.895,73.42 104.867,74.535 C100.281,74.743 95.547,75.079 90.773,75.541 C89.365,75.686 87.988,75.849 86.619,76.02 C83.627,71.73 80.783,67.255 78.14,62.66 C75.035,57.217 72.727,52.336 71.276,48.144 C69.869,44.166 69.229,40.577 69.527,38.225 L69.527,38.225 Z M164.654,48.153 C163.203,52.346 160.895,57.227 157.797,62.656 C155.143,67.27 152.301,71.746 149.32,76.023 C147.945,75.852 146.562,75.688 145.151,75.544 C140.339,75.078 135.597,74.74 131.046,74.536 C130.019,73.422 128.982,72.305 127.918,71.182 C125.767,68.916 123.602,66.721 121.435,64.567 C123.654,62.188 125.88,59.879 128.074,57.693 C132.739,53.007 137.712,48.591 142.85,44.573 C147.5,40.966 151.664,38.288 155.238,36.607 C158.558,35.01 161.519,34.282 163.463,34.612 C163.772,34.646 164.07,34.758 164.386,34.876 L164.426,34.892 C164.609,34.979 164.764,35.08 164.901,35.167 L165.014,35.238 L165.442,35.64 L165.804,36.165 L165.873,36.315 C165.96,36.503 166.063,36.717 166.124,36.892 L166.158,37.018 C166.263,37.399 166.371,37.794 166.413,38.297 C166.704,40.575 166.064,44.164 164.654,48.153 L164.654,48.153 Z M85.978,82.537 C87.688,85.128 89.475,87.725 91.3,90.319 C90.916,90.801 90.529,91.282 90.149,91.766 C87.067,95.699 84.136,99.655 81.435,103.528 C80.692,104.606 79.958,105.699 79.231,106.802 C78.845,106.735 78.458,106.674 78.073,106.605 C73.473,105.796 69.422,104.835 65.691,103.668 C63.72,103.052 61.79,102.333 59.964,101.535 C57.909,100.623 56.281,99.698 54.948,98.681 C54.234,98.171 53.651,97.544 53.171,96.991 C52.759,96.432 52.491,95.898 52.393,95.442 L52.349,95.11 L52.379,94.626 L52.385,94.601 C52.424,94.472 52.457,94.352 52.483,94.213 L52.483,94.214 L52.495,94.19 C52.54,94.09 52.584,93.986 52.62,93.89 C52.875,93.297 53.299,92.678 53.861,92.083 C54.896,90.962 56.239,89.916 58.089,88.793 C59.562,87.899 61.16,87.082 62.974,86.294 C65.909,85.017 69.084,83.906 72.971,82.798 C76.97,81.642 80.792,80.813 84.437,80.154 C84.939,80.937 85.451,81.729 85.978,82.537 L85.978,82.537 Z M183.572,94.673 L183.579,94.706 C183.582,94.831 183.588,94.954 183.596,95.077 L183.544,95.568 C183.505,95.66 183.469,95.753 183.439,95.848 L183.406,95.946 L183.309,96.135 L183.244,96.276 C183.203,96.381 183.065,96.578 182.943,96.751 C182.876,96.845 182.81,96.94 182.747,97.034 C182.271,97.581 181.692,98.197 180.954,98.726 C179.663,99.713 178.034,100.639 175.983,101.551 C174.197,102.334 172.267,103.053 170.246,103.686 C166.514,104.854 162.463,105.815 157.86,106.626 C157.47,106.695 157.086,106.755 156.697,106.822 C155.961,105.706 155.222,104.607 154.479,103.535 C151.777,99.66 148.848,95.704 145.77,91.774 C145.389,91.29 145.001,90.808 144.616,90.325 C146.45,87.721 148.244,85.117 149.953,82.526 C150.479,81.72 150.989,80.93 151.49,80.15 C155.154,80.811 158.984,81.639 162.968,82.79 C166.846,83.895 170.021,85.005 172.965,86.284 C174.728,87.046 176.372,87.886 177.847,88.778 C179.701,89.903 181.046,90.95 182.093,92.085 C182.656,92.68 183.088,93.314 183.379,94 C183.464,94.174 183.514,94.405 183.572,94.673 L183.572,94.673 Z M91.19,79.063 C95.21,78.48 98.79,78.125 101.823,77.885 C99.244,80.764 96.775,83.624 94.405,86.49 C92.687,84.288 91,82.085 89.405,79.907 C89.279,79.737 89.158,79.559 89.032,79.387 C89.759,79.275 90.479,79.167 91.19,79.063 L91.19,79.063 Z M121.265,74.249 L117.978,74.237 L114.656,74.249 C114.072,74.256 113.463,74.274 112.87,74.285 C114.616,72.212 116.326,70.229 117.975,68.371 C119.607,70.207 121.302,72.173 123.082,74.285 C122.477,74.274 121.875,74.256 121.265,74.249 L121.265,74.249 Z M146.53,79.918 C144.936,82.094 143.26,84.307 141.531,86.522 C139.146,83.638 136.668,80.767 134.085,77.882 C137.137,78.123 140.732,78.478 144.74,79.059 C145.456,79.164 146.18,79.273 146.911,79.386 C146.783,79.561 146.659,79.744 146.53,79.918 L146.53,79.918 Z M144.845,108.458 C139.894,108.942 134.954,109.28 130.055,109.494 C131.879,107.268 133.71,104.98 135.559,102.6 C137.131,100.571 138.662,98.532 140.172,96.489 L140.297,96.663 C143.012,100.521 145.572,104.368 147.924,108.115 C146.885,108.241 145.858,108.356 144.845,108.458 L144.845,108.458 Z M95.649,96.674 L95.764,96.514 C97.273,98.557 98.802,100.594 100.368,102.615 C102.208,104.984 104.027,107.259 105.837,109.47 C100.95,109.258 96.024,108.929 91.095,108.443 C90.078,108.34 89.059,108.225 88.038,108.102 C90.393,104.353 92.947,100.513 95.649,96.674 L95.649,96.674 Z M117.966,77.237 L122.138,77.293 C123.134,77.315 124.312,77.342 125.647,77.388 C129.532,82.115 133.344,87.036 137.032,92.108 C135.301,94.191 133.457,96.349 131.432,98.652 C128.131,102.41 124.694,106.105 121.175,109.723 C120.104,109.733 119.026,109.758 117.963,109.755 C116.908,109.753 115.837,109.726 114.774,109.713 C111.235,106.076 107.794,102.379 104.506,98.637 C102.545,96.407 100.68,94.227 98.921,92.112 C102.629,87.013 106.44,82.091 110.305,77.387 C111.627,77.341 112.795,77.315 113.783,77.293 L117.966,77.237 L117.966,77.237 Z M72.459,141.216 C72.728,139.379 73.311,137.213 74.239,134.6 C74.976,132.549 75.896,130.341 77.057,127.839 C77.947,125.887 78.96,123.846 80.338,121.229 C81.182,119.643 82.091,118.02 83.04,116.367 C85.289,116.782 87.655,117.169 90.17,117.534 C96.761,118.509 103.765,119.097 111.415,119.328 C108.547,122.023 105.692,124.586 102.907,126.952 C98.825,130.433 95.381,133.168 92.077,135.557 C90.404,136.752 88.424,138.14 86.408,139.377 C84.212,140.758 82.382,141.793 80.654,142.636 C78.483,143.688 76.661,144.354 75.037,144.683 C74.392,144.836 73.713,144.879 73.023,144.815 L72.793,144.785 L72.575,144.703 L72.529,144.675 L72.463,144.538 C72.439,144.439 72.411,144.334 72.38,144.233 L72.366,144.122 C72.356,144.027 72.345,143.932 72.331,143.839 C72.266,142.954 72.307,142.085 72.459,141.216 L72.459,141.216 Z M163.605,143.84 C163.59,143.933 163.579,144.028 163.569,144.123 L163.56,144.221 C163.53,144.315 163.503,144.417 163.473,144.536 L163.417,144.656 L163.414,144.661 L163.145,144.771 L162.905,144.812 C162.214,144.873 161.539,144.832 160.842,144.666 C159.312,144.362 157.492,143.695 155.285,142.63 C153.54,141.778 151.658,140.712 149.521,139.363 C147.859,138.332 146.113,137.154 143.87,135.55 C140.469,133.089 136.927,130.272 133.034,126.933 C130.255,124.573 127.404,122.014 124.539,119.324 C132.183,119.089 139.18,118.496 145.759,117.52 C148.343,117.143 150.699,116.758 152.906,116.351 C153.869,118.023 154.762,119.633 155.602,121.212 C156.686,123.275 157.833,125.506 158.887,127.842 C160.073,130.406 160.967,132.553 161.699,134.592 C162.616,137.169 163.198,139.336 163.483,141.256 C163.629,142.085 163.67,142.954 163.605,143.84 L163.605,143.84 Z M189.339,93.92 L189.312,93.701 L189.282,93.542 C189.111,92.834 188.859,91.918 188.446,91.163 C187.82,89.91 186.979,88.795 185.876,87.757 C183.968,85.948 181.96,84.794 180.241,83.9 C178.549,83.03 176.718,82.248 174.656,81.515 C171.477,80.355 168.079,79.391 163.954,78.48 C160.586,77.756 157.187,77.149 153.714,76.628 C156.502,72.152 158.853,68.106 160.818,64.39 C164.021,58.248 166.235,53.265 167.588,49.155 C168.366,46.791 168.895,44.764 169.203,42.957 C169.513,41.145 169.585,39.405 169.415,37.977 C169.354,37.262 169.191,36.679 169.06,36.21 L169.002,36.01 C168.872,35.63 168.723,35.31 168.592,35.032 L167.817,33.8 L166.964,32.947 L166.522,32.634 C166.304,32.494 166.005,32.302 165.638,32.132 L165.436,32.051 C165.031,31.896 164.476,31.686 163.866,31.618 C162.53,31.402 160.966,31.489 159.342,31.865 C157.755,32.234 155.987,32.859 153.938,33.777 C150.38,35.37 146.086,37.963 140.801,41.709 C136.238,44.992 131.146,49.139 125.227,54.39 C122.807,56.559 120.381,58.833 117.959,61.164 C115.533,58.828 113.108,56.555 110.695,54.392 C104.754,49.119 99.662,44.972 95.122,41.706 C89.836,37.959 85.542,35.366 81.994,33.777 C79.938,32.857 78.17,32.232 76.591,31.866 C74.969,31.488 73.404,31.401 72.135,31.608 C71.456,31.686 70.901,31.897 70.495,32.052 L70.295,32.132 C69.927,32.302 69.628,32.494 69.41,32.634 L68.319,33.564 L67.586,34.559 L67.341,35.031 C67.21,35.309 67.06,35.63 66.906,36.091 L66.875,36.203 C66.743,36.674 66.578,37.26 66.523,37.927 C66.348,39.404 66.419,41.145 66.73,42.956 C67.038,44.766 67.567,46.794 68.344,49.156 C69.7,53.274 71.914,58.258 75.116,64.4 C77.09,68.129 79.437,72.171 82.21,76.626 C78.727,77.147 75.327,77.753 71.969,78.473 C67.856,79.379 64.458,80.344 61.289,81.5 C59.234,82.225 57.402,83.007 55.681,83.892 C53.967,84.783 51.957,85.94 50.051,87.746 C48.944,88.788 48.101,89.91 47.436,91.248 L47.325,91.491 C47.21,91.72 47.052,92.056 46.949,92.447 C46.82,92.884 46.687,93.413 46.604,93.83 L46.495,95.001 C46.45,95.228 46.448,95 46.466,96 L46.46,96 L46.537,96.792 C46.74,98.388 47.339,99.658 48.41,101.272 C49.321,102.508 50.259,103.481 51.169,104.234 C52.83,105.686 54.693,106.907 57.216,108.253 C59.24,109.322 61.367,110.265 63.533,111.081 C66.873,112.352 70.474,113.463 74.441,114.486 C74.052,115.142 73.659,115.792 73.278,116.451 C70.239,121.744 68.007,126.362 66.251,130.99 C65.034,134.231 64.303,136.894 63.883,139.605 C63.586,141.346 63.514,143.142 63.676,145.025 L63.723,145.393 C63.769,145.769 63.816,146.141 63.918,146.593 C64.047,147.105 64.171,147.594 64.336,148.112 L64.374,148.218 C64.635,148.865 64.937,149.498 65.272,150.096 L65.946,151.072 C66.05,151.204 66.17,151.357 66.312,151.498 L66.308,151.501 L67.444,152.575 L67.619,152.711 C68.053,153 68.5,153.272 68.95,153.523 L69.089,153.591 C69.532,153.782 69.979,153.938 70.483,154.11 C70.869,154.227 71.218,154.284 71.526,154.335 L71.932,154.402 C72.484,154.466 73.034,154.498 73.582,154.498 C74.631,154.498 75.668,154.381 76.668,154.149 C79.682,153.52 82.273,152.315 84.198,151.334 C88.122,149.316 92.098,146.701 96.716,143.102 C100.627,140.031 104.358,136.826 107.808,133.573 C111.121,130.435 114.515,127.017 117.899,123.414 L117.955,123.353 L118.026,123.43 C121.408,127.032 124.802,130.451 128.119,133.595 C131.669,136.924 135.401,140.127 139.213,143.117 C143.766,146.672 147.743,149.286 151.736,151.345 C153.633,152.313 156.203,153.507 159.233,154.145 C160.256,154.382 161.302,154.501 162.357,154.501 C162.903,154.501 163.452,154.469 164.001,154.405 L164.406,154.338 C164.714,154.287 165.063,154.23 165.504,154.096 C165.959,153.94 166.393,153.789 166.856,153.589 L166.979,153.528 C167.55,153.217 168.107,152.857 168.633,152.455 L169.49,151.65 C169.611,151.521 169.741,151.382 169.855,151.227 L169.858,151.229 L170.773,149.914 L170.871,149.742 C171.114,149.245 171.344,148.732 171.556,148.216 L171.598,148.1 C171.758,147.594 171.888,147.085 172.026,146.532 C172.114,146.142 172.161,145.769 172.207,145.394 L172.262,144.947 C172.416,143.143 172.344,141.345 172.051,139.63 C171.522,136.183 170.503,133.203 169.673,130.989 C167.951,126.436 165.717,121.818 162.641,116.454 C162.253,115.783 161.859,115.127 161.467,114.466 C165.438,113.443 169.047,112.324 172.389,111.053 C174.52,110.252 176.646,109.295 178.714,108.205 C181.23,106.864 183.092,105.62 184.725,104.194 C185.665,103.415 186.602,102.395 187.51,101.16 L187.795,100.705 C188.099,100.212 188.445,99.651 188.7,98.966 C188.845,98.627 189.026,98.204 189.143,97.648 L189.295,96.977 L189.376,96.556 C189.388,96.456 189.394,96.375 189.402,96.231 L189.545,93.928 L189.339,93.92 L189.339,93.92 Z" id="Fill-46" fill="#91928E"></path>
            <path d="M130.055,109.495 C127.685,112.386 125.327,115.16 122.962,117.836 C123.488,118.339 124.013,118.83 124.539,119.324 C132.183,119.089 139.18,118.496 145.759,117.52 C148.343,117.143 150.699,116.758 152.906,116.351 C151.516,113.934 149.977,111.382 148.211,108.566 C148.118,108.417 148.018,108.265 147.924,108.115 C146.885,108.241 145.858,108.356 144.845,108.458 C139.895,108.942 134.953,109.281 130.055,109.495" id="Fill-47" fill="#14A090"></path>
            <path d="M105.846,109.482 C100.957,109.266 96.026,108.93 91.095,108.443 C90.078,108.34 89.059,108.225 88.038,108.102 C87.939,108.26 87.835,108.42 87.736,108.577 C86.015,111.306 84.471,113.878 83.04,116.367 C85.289,116.782 87.655,117.169 90.17,117.534 C96.761,118.509 103.765,119.097 111.415,119.328 C111.933,118.841 112.45,118.357 112.968,117.862 C110.598,115.18 108.23,112.393 105.846,109.482" id="Fill-48" fill="#14A090"></path>
            <path d="M117.963,109.755 C116.91,109.756 115.841,109.73 114.78,109.719 C115.841,110.809 116.9,111.901 117.979,112.978 C119.055,111.904 120.114,110.813 121.174,109.723 C120.104,109.733 119.025,109.759 117.963,109.755" id="Fill-49" fill="#14A090"></path>
            <path d="M108.002,71.175 C106.935,72.301 105.895,73.419 104.867,74.535 C105.011,74.528 105.159,74.519 105.303,74.513 C107.879,74.399 110.403,74.329 112.87,74.285 C114.616,72.212 116.326,70.229 117.975,68.371 C117.244,67.548 116.522,66.743 115.81,65.964 C115.373,65.489 114.935,65.021 114.497,64.551 C112.321,66.712 110.152,68.911 108.002,71.175" id="Fill-50" fill="#14A090"></path>
            <path d="M95.764,96.514 C94.242,94.455 92.757,92.389 91.3,90.319 C90.916,90.801 90.529,91.282 90.149,91.766 C87.067,95.699 84.136,99.655 81.435,103.528 C80.692,104.606 79.958,105.699 79.231,106.802 C82.155,107.31 85.102,107.748 88.038,108.102 C90.393,104.353 92.947,100.513 95.649,96.674 L95.764,96.514" id="Fill-51" fill="#14A090"></path>
            <path d="M98.921,92.112 C102.629,87.013 106.44,82.091 110.305,77.387 C108.872,77.437 107.256,77.509 105.471,77.625 C104.373,77.695 103.145,77.78 101.823,77.885 C99.244,80.764 96.775,83.624 94.405,86.49 C95.105,87.387 95.795,88.284 96.51,89.179 C97.284,90.137 98.094,91.12 98.921,92.112" id="Fill-52" fill="#14A090"></path>
            <path d="M111.415,119.328 C108.547,122.023 105.692,124.586 102.907,126.952 C98.825,130.433 95.381,133.168 92.077,135.557 C90.404,136.752 88.424,138.14 86.408,139.377 C84.212,140.758 82.382,141.793 80.654,142.636 C78.483,143.688 76.661,144.354 75.037,144.683 C74.392,144.835 73.713,144.879 73.023,144.815 L72.793,144.785 L72.575,144.703 L72.529,144.675 L72.463,144.538 C72.439,144.439 72.411,144.334 72.38,144.233 L72.366,144.122 C72.356,144.027 72.345,143.932 72.331,143.839 C72.266,142.954 72.307,142.085 72.459,141.216 C72.728,139.379 73.311,137.213 74.239,134.6 C74.976,132.549 75.896,130.341 77.057,127.839 C77.947,125.887 78.96,123.846 80.338,121.229 C81.182,119.643 82.091,118.02 83.04,116.367 C80.797,115.953 78.671,115.512 76.631,115.037 C75.879,114.857 75.166,114.667 74.441,114.48 C74.052,115.135 73.659,115.788 73.278,116.448 C70.239,121.741 68.007,126.36 66.251,130.988 C65.034,134.23 64.303,136.894 63.883,139.605 C63.586,141.345 63.514,143.142 63.676,145.024 L63.723,145.393 C63.769,145.769 63.816,146.141 63.918,146.593 C64.047,147.105 64.171,147.594 64.336,148.112 L64.374,148.218 C64.635,148.865 64.937,149.498 65.272,150.096 L65.946,151.072 C66.05,151.204 66.17,151.357 66.312,151.498 L66.308,151.501 L67.444,152.575 L67.619,152.711 C68.053,153 68.5,153.272 68.95,153.523 L69.089,153.591 C69.532,153.782 69.979,153.938 70.483,154.11 C70.869,154.227 71.218,154.284 71.526,154.335 L71.932,154.402 C72.484,154.466 73.034,154.498 73.582,154.498 C74.631,154.498 75.668,154.381 76.668,154.149 C79.682,153.52 82.273,152.315 84.198,151.334 C88.122,149.316 92.098,146.701 96.716,143.102 C100.627,140.031 104.358,136.826 107.808,133.573 C111.121,130.435 114.515,127.017 117.899,123.414 L117.955,123.353 C116.746,122.06 115.542,120.741 114.34,119.402 C113.352,119.384 112.382,119.357 111.415,119.328" id="Fill-53"></path>
            <path d="M117.979,112.978 C119.579,114.573 121.197,116.154 122.833,117.715 L122.962,117.836 C125.327,115.16 127.685,112.386 130.055,109.495 C127.071,109.625 124.112,109.696 121.174,109.723 C120.114,110.813 119.055,111.904 117.979,112.978" id="Fill-55" fill="#14A090"></path>
            <path d="M110.305,77.387 C110.875,76.693 111.441,75.983 112.013,75.3 C112.301,74.955 112.584,74.624 112.87,74.285 C110.403,74.329 107.879,74.399 105.303,74.513 C105.159,74.519 105.011,74.528 104.867,74.535 C103.834,75.656 102.82,76.772 101.823,77.885 C103.145,77.78 104.373,77.695 105.471,77.625 C107.256,77.509 108.872,77.437 110.305,77.387" id="Fill-56" fill="#14A090"></path>
            <path d="M83.04,116.367 C84.471,113.878 86.015,111.306 87.736,108.577 C87.835,108.42 87.939,108.26 88.038,108.102 C85.102,107.748 82.155,107.31 79.231,106.802 C77.582,109.306 75.984,111.876 74.441,114.48 C75.166,114.667 75.879,114.857 76.631,115.037 C78.671,115.512 80.797,115.953 83.04,116.367" id="Fill-57" fill="#14A090"></path>
            <path d="M111.415,119.328 C112.382,119.357 113.352,119.384 114.34,119.402 C113.883,118.892 113.425,118.379 112.968,117.862 C112.45,118.357 111.933,118.841 111.415,119.328" id="Fill-58" fill="#14A090"></path>
            <path d="M130.631,74.515 C130.768,74.521 130.909,74.529 131.046,74.536 C130.019,73.421 128.982,72.305 127.918,71.182 C125.767,68.916 123.602,66.721 121.435,64.567 C120.998,65.036 120.561,65.503 120.125,65.977 C119.422,66.749 118.703,67.551 117.975,68.371 C119.607,70.207 121.302,72.173 123.082,74.285 C125.589,74.331 128.077,74.401 130.631,74.515" id="Fill-59" fill="#14A090"></path>
            <path d="M130.464,77.624 C128.686,77.509 127.077,77.437 125.647,77.388 C129.532,82.115 133.344,87.036 137.032,92.108 C137.855,91.119 138.661,90.14 139.433,89.182 C140.141,88.296 140.839,87.409 141.531,86.522 C139.146,83.638 136.668,80.767 134.085,77.882 C132.776,77.778 131.557,77.693 130.464,77.624" id="Fill-60" fill="#14A090"></path>
            <path d="M145.77,91.774 C145.389,91.29 145.001,90.808 144.616,90.325 C143.168,92.381 141.69,94.437 140.172,96.489 L140.297,96.663 C143.012,100.521 145.572,104.368 147.924,108.115 C150.767,107.771 153.707,107.334 156.697,106.822 C155.961,105.706 155.222,104.607 154.479,103.535 C151.777,99.66 148.848,95.704 145.77,91.774" id="Fill-61" fill="#14A090"></path>
            <path d="M152.906,116.351 C153.869,118.023 154.762,119.633 155.602,121.212 C156.686,123.275 157.833,125.506 158.887,127.842 C160.073,130.406 160.967,132.553 161.699,134.592 C162.616,137.169 163.198,139.336 163.483,141.256 C163.629,142.085 163.67,142.954 163.605,143.84 C163.59,143.933 163.579,144.028 163.569,144.123 L163.56,144.221 C163.53,144.315 163.503,144.417 163.473,144.536 L163.417,144.656 L163.414,144.661 L163.145,144.771 L162.905,144.812 C162.215,144.874 161.539,144.831 160.842,144.666 C159.312,144.362 157.492,143.695 155.285,142.63 C153.54,141.778 151.658,140.712 149.521,139.363 C147.859,138.332 146.113,137.154 143.87,135.55 C140.469,133.089 136.927,130.272 133.034,126.933 C130.255,124.573 127.404,122.014 124.539,119.324 C123.557,119.354 122.572,119.382 121.569,119.4 C120.368,120.738 119.165,122.058 117.955,123.353 L118.026,123.43 C121.408,127.032 124.802,130.451 128.119,133.595 C131.669,136.924 135.401,140.127 139.213,143.117 C143.766,146.672 147.743,149.286 151.736,151.345 C153.633,152.313 156.203,153.507 159.233,154.145 C160.256,154.382 161.302,154.501 162.357,154.501 C162.903,154.501 163.452,154.469 164.001,154.405 L164.406,154.338 C164.714,154.287 165.063,154.23 165.504,154.096 C165.959,153.94 166.393,153.789 166.856,153.589 L166.979,153.528 C167.55,153.217 168.107,152.857 168.633,152.455 L169.49,151.65 C169.611,151.521 169.741,151.382 169.855,151.227 L169.858,151.229 L170.773,149.914 L170.871,149.742 C171.114,149.245 171.344,148.732 171.556,148.216 L171.598,148.1 C171.758,147.594 171.888,147.085 172.026,146.532 C172.114,146.142 172.161,145.769 172.207,145.394 L172.262,144.947 C172.416,143.143 172.344,141.345 172.051,139.63 C171.522,136.183 170.503,133.203 169.673,130.989 C167.951,126.436 165.717,121.818 162.641,116.454 C162.253,115.783 161.859,115.127 161.467,114.466 C160.752,114.65 160.048,114.837 159.308,115.015 C157.276,115.494 155.169,115.934 152.906,116.351" id="Fill-62"></path>
            <path d="M105.846,109.482 C108.23,112.393 110.598,115.18 112.968,117.862 L113.109,117.73 C114.748,116.168 116.371,114.582 117.979,112.978 C116.9,111.901 115.841,110.809 114.78,109.719 C111.824,109.687 108.847,109.614 105.846,109.482" id="Fill-64" fill="#14A090"></path>
            <path d="M147.924,108.115 C148.018,108.265 148.118,108.417 148.211,108.566 C149.977,111.382 151.516,113.934 152.906,116.351 C155.169,115.934 157.276,115.494 159.308,115.015 C160.048,114.837 160.752,114.65 161.467,114.466 C159.907,111.835 158.315,109.274 156.697,106.822 C153.707,107.334 150.767,107.771 147.924,108.115" id="Fill-65" fill="#14A090"></path>
            <path d="M121.569,119.4 C122.572,119.382 123.557,119.354 124.539,119.324 C124.013,118.83 123.488,118.339 122.962,117.836 C122.498,118.361 122.034,118.882 121.569,119.4" id="Fill-66" fill="#14A090"></path>
            <path d="M125.647,77.388 C127.077,77.437 128.686,77.509 130.464,77.624 C131.557,77.693 132.776,77.778 134.085,77.882 C133.089,76.77 132.077,75.654 131.046,74.536 C130.909,74.529 130.768,74.521 130.631,74.515 C128.077,74.401 125.589,74.331 123.082,74.285 C123.367,74.623 123.643,74.946 123.932,75.292 C124.508,75.98 125.075,76.691 125.647,77.388" id="Fill-67" fill="#14A090"></path>
            <path d="M115.81,65.964 C116.522,66.743 117.244,67.548 117.975,68.371 C118.703,67.551 119.422,66.749 120.125,65.977 C120.561,65.503 120.998,65.036 121.435,64.567 C120.276,63.416 119.118,62.28 117.959,61.164 C116.803,62.276 115.65,63.406 114.497,64.551 C114.935,65.021 115.373,65.489 115.81,65.964" id="Fill-68" fill="#14A090"></path>
            <path d="M96.51,89.179 C95.795,88.284 95.105,87.387 94.405,86.49 C93.351,87.763 92.32,89.04 91.3,90.319 C92.757,92.389 94.242,94.455 95.764,96.514 C96.805,95.032 97.861,93.569 98.921,92.112 C98.094,91.12 97.284,90.137 96.51,89.179" id="Fill-69" fill="#14A090"></path>
            <path d="M137.032,92.108 C138.088,93.56 139.138,95.017 140.172,96.489 C141.69,94.437 143.168,92.381 144.616,90.325 C143.602,89.054 142.577,87.785 141.531,86.522 C140.839,87.409 140.141,88.296 139.433,89.182 C138.661,90.14 137.855,91.119 137.032,92.108" id="Fill-70" fill="#14A090"></path>
            <path d="M122.833,117.715 C121.197,116.154 119.579,114.573 117.979,112.978 C116.371,114.582 114.748,116.168 113.109,117.73 L112.968,117.862 C113.425,118.379 113.883,118.892 114.34,119.402 C115.536,119.423 116.745,119.437 117.973,119.441 C119.189,119.436 120.385,119.422 121.569,119.4 C122.034,118.882 122.498,118.361 122.962,117.836 L122.833,117.715" id="Fill-71" fill="#14A090"></path>
            <path d="M143.908,77.763 C143.908,73.68 147.218,70.371 151.301,70.371 C155.384,70.371 158.693,73.68 158.693,77.763 C158.693,81.846 155.384,85.156 151.301,85.156 C147.218,85.156 143.908,81.846 143.908,77.763" id="Fill-72" fill="#14A090"></path>
            <path d="M64.908,55.763 C64.908,51.68 68.218,48.371 72.301,48.371 C76.384,48.371 79.693,51.68 79.693,55.763 C79.693,59.846 76.384,63.156 72.301,63.156 C68.218,63.156 64.908,59.846 64.908,55.763" id="Fill-73" fill="#14A090"></path>
            <text id="{" font-family="LucidaGrande, Lucida Grande" font-size="141.25" font-weight="normal" fill="#91928E">
                <tspan x="0" y="137">{</tspan>
            </text>
            <text id="{" transform="translate(213.000000, 83.500000) scale(-1, 1) translate(-213.000000, -83.500000) " font-family="LucidaGrande, Lucida Grande" font-size="141.25" font-weight="normal" fill="#91928E">
                <tspan x="190" y="137">{</tspan>
            </text>
        </g>
    </g>
</svg>